<svg width="16" height="16" viewBox="0 0 16 16" fill="none" xmlns="http://www.w3.org/2000/svg">
<g clip-path="url(#clip0_0_79)">
<path d="M14.2906 8.06937L10.495 6.80437C10.2976 6.73843 10.1161 6.63215 9.96203 6.49227C9.80795 6.35239 9.68466 6.18198 9.6 5.99187L8.14937 2.59999C8.14937 2.59999 8.14937 2.59562 8.14937 2.59374C8.04608 2.36205 7.85859 2.17828 7.62487 2.07964C7.39116 1.981 7.12869 1.97487 6.89062 2.06249L2.15812 3.78062C1.96546 3.85119 1.79906 3.97914 1.68138 4.14722C1.5637 4.31531 1.5004 4.51544 1.5 4.72062V12C1.5 12.2652 1.60536 12.5196 1.79289 12.7071C1.98043 12.8946 2.23478 13 2.5 13H15C15.2652 13 15.5196 12.8946 15.7071 12.7071C15.8946 12.5196 16 12.2652 16 12V10.4412C16 9.91652 15.835 9.40508 15.5282 8.97938C15.2214 8.55369 14.7884 8.23531 14.2906 8.06937ZM7.2325 2.99999L7.67688 4.03937L6.32937 4.52999C6.21884 4.57011 6.12598 4.64791 6.06711 4.74971C6.00825 4.85151 5.98715 4.9708 6.00752 5.08662C6.02789 5.20243 6.08844 5.30736 6.1785 5.38296C6.26857 5.45857 6.38241 5.5 6.5 5.49999C6.55823 5.49992 6.616 5.48955 6.67063 5.46937L8.07063 4.96062L8.36687 5.65249L7.32937 6.02749C7.21703 6.06634 7.1222 6.14393 7.06189 6.24637C7.00158 6.3488 6.97974 6.46937 7.00028 6.58645C7.02082 6.70353 7.08241 6.80947 7.17398 6.88525C7.26556 6.96104 7.38114 7.00172 7.5 6.99999C7.55823 6.99992 7.616 6.98955 7.67063 6.96937L8.77063 6.56937C8.89679 6.80163 9.05878 7.01255 9.25062 7.19437L8.32938 7.52937C8.2184 7.56918 8.12506 7.64693 8.06585 7.74889C8.00664 7.85084 7.98536 7.97044 8.00577 8.08656C8.02619 8.20269 8.08698 8.30786 8.17741 8.38351C8.26784 8.45916 8.3821 8.50041 8.5 8.49999C8.55817 8.49982 8.61588 8.48968 8.67062 8.47L10.4206 7.83374L13.975 9.01812C14.2013 9.09378 14.4063 9.22234 14.5729 9.3931C14.7395 9.56387 14.863 9.77193 14.9331 9.99999H2.5V4.72062L7.2325 2.99999ZM2.5 12V11H15V12H2.5Z" fill="#8C8D8C"/>
</g>
<defs>
<clipPath id="clip0_0_79">
<rect width="16" height="16" fill="white"/>
</clipPath>
</defs>
</svg>
