<svg width="16" height="16" viewBox="0 0 16 16" fill="none" xmlns="http://www.w3.org/2000/svg">
<path d="M14.9931 12.3825L14.1019 4.8825C14.073 4.63814 13.955 4.41301 13.7705 4.25019C13.586 4.08737 13.3479 3.9983 13.1019 4H11C11 3.20435 10.6839 2.44129 10.1213 1.87868C9.55871 1.31607 8.79565 1 8 1C7.20435 1 6.44129 1.31607 5.87868 1.87868C5.31607 2.44129 5 3.20435 5 4H2.89563C2.64956 3.9983 2.41151 4.08737 2.22702 4.25019C2.04252 4.41301 1.92453 4.63814 1.89563 4.8825L1.00438 12.3825C0.988042 12.5225 1.00148 12.6643 1.04381 12.7988C1.08614 12.9332 1.15641 13.0571 1.25 13.1625C1.34427 13.2683 1.45979 13.3531 1.58902 13.4112C1.71825 13.4694 1.85829 13.4996 2 13.5H13.995C14.1376 13.5003 14.2786 13.4704 14.4087 13.4122C14.5388 13.3541 14.6552 13.2689 14.75 13.1625C14.8432 13.0569 14.913 12.9329 14.9549 12.7985C14.9968 12.664 15.0098 12.5223 14.9931 12.3825ZM8 2C8.53043 2 9.03914 2.21071 9.41421 2.58579C9.78929 2.96086 10 3.46957 10 4H6C6 3.46957 6.21071 2.96086 6.58579 2.58579C6.96086 2.21071 7.46957 2 8 2ZM2 12.5L2.89563 5H5V6.5C5 6.63261 5.05268 6.75979 5.14645 6.85355C5.24021 6.94732 5.36739 7 5.5 7C5.63261 7 5.75979 6.94732 5.85355 6.85355C5.94732 6.75979 6 6.63261 6 6.5V5H10V6.5C10 6.63261 10.0527 6.75979 10.1464 6.85355C10.2402 6.94732 10.3674 7 10.5 7C10.6326 7 10.7598 6.94732 10.8536 6.85355C10.9473 6.75979 11 6.63261 11 6.5V5H13.1094L13.995 12.5H2Z" fill="#8C8D8C"/>
</svg>
