<svg width="16" height="16" viewBox="0 0 16 16" fill="none" xmlns="http://www.w3.org/2000/svg">
<path d="M13 8C12.9998 7.21504 12.8147 6.44116 12.4596 5.7411C12.1045 5.04104 11.5895 4.43449 10.9563 3.97062L10.5663 1.82187C10.5245 1.59134 10.4032 1.38278 10.2234 1.23258C10.0436 1.08237 9.81678 1.00006 9.5825 1H6.4175C6.18323 1.00006 5.95641 1.08237 5.77662 1.23258C5.59683 1.38278 5.47548 1.59134 5.43375 1.82187L5.04375 3.97062C4.41034 4.43434 3.89517 5.04085 3.54005 5.74094C3.18493 6.44104 2.99986 7.21499 2.99986 8C2.99986 8.78501 3.18493 9.55896 3.54005 10.2591C3.89517 10.9592 4.41034 11.5657 5.04375 12.0294L5.43375 14.1781C5.47548 14.4087 5.59683 14.6172 5.77662 14.7674C5.95641 14.9176 6.18323 14.9999 6.4175 15H9.5825C9.81678 14.9999 10.0436 14.9176 10.2234 14.7674C10.4032 14.6172 10.5245 14.4087 10.5663 14.1781L10.9563 12.0294C11.5895 11.5655 12.1045 10.959 12.4596 10.2589C12.8147 9.55884 12.9998 8.78496 13 8ZM6.4175 2H9.5825L9.82688 3.34687C8.65287 2.88439 7.34714 2.88439 6.17313 3.34687L6.4175 2ZM4 8C4 7.20887 4.2346 6.43552 4.67412 5.77772C5.11365 5.11992 5.73836 4.60723 6.46927 4.30448C7.20017 4.00173 8.00444 3.92252 8.78036 4.07686C9.55629 4.2312 10.269 4.61216 10.8284 5.17157C11.3878 5.73098 11.7688 6.44371 11.9231 7.21964C12.0775 7.99556 11.9983 8.79983 11.6955 9.53073C11.3928 10.2616 10.8801 10.8864 10.2223 11.3259C9.56449 11.7654 8.79113 12 8 12C6.93949 11.9988 5.92275 11.577 5.17285 10.8271C4.42296 10.0773 4.00116 9.06051 4 8ZM9.5825 14H6.4175L6.17313 12.6531C7.34714 13.1156 8.65287 13.1156 9.82688 12.6531L9.5825 14ZM7.5 8V5.5C7.5 5.36739 7.55268 5.24021 7.64645 5.14645C7.74022 5.05268 7.86739 5 8 5C8.13261 5 8.25979 5.05268 8.35356 5.14645C8.44732 5.24021 8.5 5.36739 8.5 5.5V7.5H10.5C10.6326 7.5 10.7598 7.55268 10.8536 7.64645C10.9473 7.74021 11 7.86739 11 8C11 8.13261 10.9473 8.25979 10.8536 8.35355C10.7598 8.44732 10.6326 8.5 10.5 8.5H8C7.86739 8.5 7.74022 8.44732 7.64645 8.35355C7.55268 8.25979 7.5 8.13261 7.5 8Z" fill="#8C8D8C"/>
</svg>
