<svg width="16" height="16" viewBox="0 0 16 16" fill="none" xmlns="http://www.w3.org/2000/svg">
<path d="M13.4187 13.1062C13.4168 13.1009 13.4145 13.0957 13.4119 13.0906L10.5694 7.03687L11.8506 5.02563C11.8531 5.02202 11.8554 5.01826 11.8575 5.01438C11.9507 4.85899 11.9999 4.6812 11.9999 4.5C11.9999 4.3188 11.9507 4.14101 11.8575 3.98563C11.8519 3.97563 11.845 3.96563 11.8387 3.95625L10.5 2.04375V0.5C10.5 0.367392 10.4473 0.240215 10.3535 0.146447C10.2598 0.0526784 10.1326 0 9.99999 0C9.86738 0 9.7402 0.0526784 9.64644 0.146447C9.55267 0.240215 9.49999 0.367392 9.49999 0.5V2.02625L9.17124 2.4375C9.03071 2.61314 8.85248 2.75493 8.64974 2.85236C8.44699 2.9498 8.22493 3.00039 7.99999 3.00039C7.77505 3.00039 7.55299 2.9498 7.35025 2.85236C7.1475 2.75493 6.96927 2.61314 6.82874 2.4375L6.49999 2.02625V0.5C6.49999 0.367392 6.44731 0.240215 6.35354 0.146447C6.25978 0.0526784 6.1326 0 5.99999 0C5.86738 0 5.74021 0.0526784 5.64644 0.146447C5.55267 0.240215 5.49999 0.367392 5.49999 0.5V2.04375L4.16124 3.95625C4.15499 3.96563 4.14812 3.97563 4.14249 3.98563C4.04929 4.14101 4.00006 4.3188 4.00006 4.5C4.00006 4.6812 4.04929 4.85899 4.14249 5.01438C4.14455 5.01826 4.14685 5.02202 4.14937 5.02563L5.43062 7.03687L2.58812 13.0906C2.58545 13.0957 2.58315 13.1009 2.58124 13.1062C2.5161 13.2583 2.48971 13.4242 2.50442 13.5889C2.51913 13.7537 2.57449 13.9123 2.66554 14.0504C2.75659 14.1885 2.88048 14.3019 3.02611 14.3803C3.17174 14.4588 3.33456 14.4999 3.49999 14.5H12.5C12.6655 14.5 12.8284 14.459 12.9741 14.3806C13.1198 14.3021 13.2438 14.1888 13.3349 14.0506C13.426 13.9125 13.4814 13.7539 13.4962 13.5891C13.5109 13.4243 13.4845 13.2584 13.4194 13.1062H13.4187ZM4.99999 4.5L6.02687 3.03562L6.04749 3.06188C6.2817 3.35476 6.5788 3.5912 6.91678 3.75369C7.25477 3.91618 7.62498 4.00055 7.99999 4.00055C8.375 4.00055 8.74521 3.91618 9.0832 3.75369C9.42118 3.5912 9.71828 3.35476 9.95249 3.06188L9.97312 3.03562L11 4.5L9.72624 6.5H6.27437L4.99999 4.5ZM3.49999 13.5L6.31687 7.5H9.68187L12.5 13.5H3.49999Z" fill="#8C8D8C"/>
</svg>
